<svg xmlns="http://www.w3.org/2000/svg" viewBox="0 0 48 48"><title>barcode scanner</title><g id="barcode_scanner" data-name="barcode scanner"><path d="M40,17A11,11,0,0,0,29,6H12a1.9,1.9,0,0,0-.25,0,1.9,1.9,0,0,0-.25,0A3.5,3.5,0,0,0,8,9.5v8A3.5,3.5,0,0,0,11.5,21a1.9,1.9,0,0,0,.25,0A1.9,1.9,0,0,0,12,21H22v1.76a4.4,4.4,0,0,1-1.29,3.12A2.41,2.41,0,0,0,22.41,30h3.87l2,5.94a.82.82,0,0,1-.11.73.79.79,0,0,1-.65.33,2.5,2.5,0,0,0,0,5h8.92a3.59,3.59,0,0,0,3.4-4.71L34.39,21H36A4,4,0,0,0,40,17ZM29,8a9,9,0,0,1,8.47,6H22a7,7,0,0,1-6.92-6ZM13,17.5A1.49,1.49,0,0,1,11.75,19,2,2,0,0,1,10,17V10a2,2,0,0,1,1.75-2A1.49,1.49,0,0,1,13,9.5ZM22.41,28a.42.42,0,0,1-.41-.41.42.42,0,0,1,.12-.3A6.32,6.32,0,0,0,24,23.13L25.61,28Zm15.51,9.92a1.69,1.69,0,0,1,.08.5A1.58,1.58,0,0,1,36.42,40H27.5a.5.5,0,0,1,0-1,2.81,2.81,0,0,0,2.66-3.69L28,28.8a.6.6,0,0,0-.06-.19L25.39,21h6.89ZM14.65,19A3.45,3.45,0,0,0,15,17.5V12.64A9,9,0,0,0,22,16H37.94A8.26,8.26,0,0,1,38,17a2,2,0,0,1-2,2Z"/></g></svg>