<?xml version="1.0" encoding="UTF-8" standalone="no"?>
<!-- Uploaded to: SVG Repo, www.svgrepo.com, Generator: SVG Repo Mixer Tools -->

<svg
   width="800px"
   height="800px"
   viewBox="0 0 24 24"
   fill="none"
   version="1.1"
   id="svg2"
   sodipodi:docname="search-found.svg"
   inkscape:version="1.4.2 (ebf0e940, 2025-05-08)"
   xmlns:inkscape="http://www.inkscape.org/namespaces/inkscape"
   xmlns:sodipodi="http://sodipodi.sourceforge.net/DTD/sodipodi-0.dtd"
   xmlns="http://www.w3.org/2000/svg"
   xmlns:svg="http://www.w3.org/2000/svg">
  <defs
     id="defs2" />
  <sodipodi:namedview
     id="namedview2"
     pagecolor="#ffffff"
     bordercolor="#cccccc"
     borderopacity="1"
     inkscape:showpageshadow="0"
     inkscape:pageopacity="1"
     inkscape:pagecheckerboard="0"
     inkscape:deskcolor="#d1d1d1"
     inkscape:zoom="0.1102191"
     inkscape:cx="1265.6608"
     inkscape:cy="893.67449"
     inkscape:window-width="1800"
     inkscape:window-height="1130"
     inkscape:window-x="0"
     inkscape:window-y="39"
     inkscape:window-maximized="0"
     inkscape:current-layer="svg2" />
  <path
     d="M7.66493 10.2366L9.19702 8.951L10.4826 10.4831L13.5468 7.91194L14.8323 9.44402L10.2361 13.3007L7.66493 10.2366Z"
     fill="#000000"
     id="path1"
     style="fill:#008000" />
  <path
     fill-rule="evenodd"
     clip-rule="evenodd"
     d="M16.2067 4.89344C19.0918 7.77862 19.3126 12.3193 16.8688 15.4578C16.8841 15.4713 16.8991 15.4854 16.9138 15.5L21.1564 19.7427C21.5469 20.1332 21.5469 20.7664 21.1564 21.1569C20.7659 21.5474 20.1327 21.5474 19.7422 21.1569L15.4996 16.9143C15.4849 16.8996 15.4708 16.8846 15.4573 16.8693C12.3188 19.3131 7.77813 19.0923 4.89295 16.2071C1.76876 13.083 1.76876 8.01763 4.89295 4.89344C8.01714 1.76924 13.0825 1.76924 16.2067 4.89344ZM14.7924 14.7929C17.1356 12.4498 17.1356 8.6508 14.7924 6.30765C12.4493 3.96451 8.65031 3.96451 6.30716 6.30765C3.96402 8.6508 3.96402 12.4498 6.30716 14.7929C8.65031 17.1361 12.4493 17.1361 14.7924 14.7929Z"
     fill="#000000"
     id="path2"
     style="fill:#008000" />
</svg>
